<?xml version="1.0" encoding="UTF-8" standalone="no"?>
<svg
   xmlns:dc="http://purl.org/dc/elements/1.1/"
   xmlns:cc="http://creativecommons.org/ns#"
   xmlns:rdf="http://www.w3.org/1999/02/22-rdf-syntax-ns#"
   xmlns:svg="http://www.w3.org/2000/svg"
   xmlns="http://www.w3.org/2000/svg"
   id="svg4412"
   version="1.1"
   viewBox="0 0 35.630305 35.633832"
   height="35.633831mm"
   width="35.630306mm">
  <defs
     id="defs4406">
    <clipPath
       id="clipPath1556"
       clipPathUnits="userSpaceOnUse">
      <path
         id="path1554"
         d="m 242.762,448.246 h 35.55 v -71.091 h -35.55 z" />
    </clipPath>
    <clipPath
       id="clipPath1708"
       clipPathUnits="userSpaceOnUse">
      <path
         id="path1706"
         d="M 365.557,372.594 H 455.07 V 359.197 H 365.557 Z" />
    </clipPath>
    <clipPath
       id="clipPath1300"
       clipPathUnits="userSpaceOnUse">
      <path
         id="path1298"
         d="m 367.886,300.778 h 65.195 V 235.58 h -65.195 z" />
    </clipPath>
    <clipPath
       id="clipPath1372"
       clipPathUnits="userSpaceOnUse">
      <path
         id="path1370"
         d="M 363.392,237.141 H 403.03 V 205.229 H 363.392 Z" />
    </clipPath>
    <clipPath
       id="clipPath1616"
       clipPathUnits="userSpaceOnUse">
      <path
         id="path1614"
         d="M 57.2368,150.854 H 130.65 V 77.4414 H 57.2368 Z" />
    </clipPath>
    <clipPath
       id="clipPath664"
       clipPathUnits="userSpaceOnUse">
      <path
         id="path662"
         d="m 262.361,66.1875 h 30.868 V 44.2773 h -30.868 z" />
    </clipPath>
    <clipPath
       id="clipPath680"
       clipPathUnits="userSpaceOnUse">
      <path
         id="path678"
         d="m 206.024,83.7422 h 33.13 v -18.583 h -33.13 z" />
    </clipPath>
    <clipPath
       id="clipPath786"
       clipPathUnits="userSpaceOnUse">
      <path
         id="path784"
         d="m 61,448.16 h 64.61 v -70.1 H 61 Z" />
    </clipPath>
    <clipPath
       id="clipPath1064"
       clipPathUnits="userSpaceOnUse">
      <path
         id="path1062"
         d="m 170,444.75 h 70.24 V 377.41 H 170 Z" />
    </clipPath>
    <clipPath
       id="clipPath1120"
       clipPathUnits="userSpaceOnUse">
      <path
         id="path1118"
         d="m 289.83,436.26 h 63.56 v -58.67 h -63.56 z" />
    </clipPath>
  </defs>
  <metadata
     id="metadata4409">
    <rdf:RDF>
      <cc:Work
         rdf:about="">
        <dc:format>image/svg+xml</dc:format>
        <dc:type
           rdf:resource="http://purl.org/dc/dcmitype/StillImage" />
        <dc:title></dc:title>
      </cc:Work>
    </rdf:RDF>
  </metadata>
  <g
     transform="translate(66.700435,3.8897758)"
     id="layer1">
    <g
       id="g3197"
       transform="matrix(0.35277777,0,0,-0.35277777,-157.31728,163.90179)">
      <g
         id="g1110"
         transform="translate(355.0313,425.125)">
        <path
           d="m 0,0 c 0,-4.26 -0.56,-8.4 -1.61,-12.33 -5.02,-18.8 -21.23,-33.02 -41.06,-35.08 -1.65,-0.17 -3.31,-0.26 -5,-0.26 -26.32,0 -47.66,21.34 -47.66,47.67 0,26.33 21.34,47.67 47.66,47.67 C -21.34,47.67 0,26.33 0,0"
           style="fill:#e74c3c;fill-opacity:1;fill-rule:nonzero;stroke:none"
           id="path1112" />
      </g>
      <g
         id="g1114">
        <g
           id="g1116" />
        <g
           id="g1128">
          <g
             clip-path="url(#clipPath1120)"
             id="g1126"
             style="opacity:0.5">
            <g
               transform="translate(353.3896,412.6699)"
               id="g1124">
              <path
                 d="m 0,0 c -5.02,-18.8 -21.229,-33.02 -41.06,-35.08 l -22.5,21.37 40.01,37.3 z"
                 style="fill:#c0392b;fill-opacity:1;fill-rule:nonzero;stroke:none"
                 id="path1122" />
            </g>
          </g>
        </g>
      </g>
      <g
         id="g1130"
         transform="translate(318.7773,448.3208)">
        <path
           d="m 0,0 h -28.187 c -1.549,0 -2.805,-1.256 -2.805,-2.807 v -43.751 c 0,-1.549 1.256,-2.806 2.805,-2.806 H 8.258 c 1.551,0 2.805,1.257 2.805,2.806 v 34.481 z"
           style="fill:#ffffff;fill-opacity:1;fill-rule:nonzero;stroke:none"
           id="path1132" />
      </g>
      <g
         id="g1134"
         transform="translate(318.7773,448.3208)">
        <path
           d="m 0,0 v -9.678 c 0,-2.383 1.529,-2.383 3.353,-2.383 h 7.71 z"
           style="fill:#e6e6e6;fill-opacity:1;fill-rule:nonzero;stroke:none"
           id="path1136" />
      </g>
      <path
         d="m 322.925,423.41 h -28.224 v 3.364 h 28.224 z"
         style="fill:#2b2b2b;fill-opacity:1;fill-rule:nonzero;stroke:none"
         id="path1138" />
      <path
         d="m 322.925,415.373 h -28.224 v 3.365 h 28.224 z"
         style="fill:#2b2b2b;fill-opacity:1;fill-rule:nonzero;stroke:none"
         id="path1140" />
      <path
         d="m 322.925,407.335 h -28.224 v 3.364 h 28.224 z"
         style="fill:#2b2b2b;fill-opacity:1;fill-rule:nonzero;stroke:none"
         id="path1142" />
      <g
         id="g1144"
         transform="translate(301.5234,430.9951)">
        <path
           d="M 0,0 -3.411,2.991 -6.822,0 V 17.326 H 0 Z"
           style="fill:#ffcd02;fill-opacity:1;fill-rule:nonzero;stroke:none"
           id="path1146" />
      </g>
    </g>
  </g>
</svg>
