<?xml version="1.0" encoding="iso-8859-1"?>
<!-- Generator: Adobe Illustrator 19.0.0, SVG Export Plug-In . SVG Version: 6.00 Build 0)  -->
<svg version="1.1" id="Layer_1" xmlns="http://www.w3.org/2000/svg" xmlns:xlink="http://www.w3.org/1999/xlink" x="0px" y="0px"
	 viewBox="0 0 512 512" style="enable-background:new 0 0 512 512;" xml:space="preserve">
<circle style="fill:#21D8DE;" cx="256" cy="256" r="256"/>
<polygon style="fill:#FFFFFF;" points="146.548,293.379 123.911,304.683 146.548,316 "/>
<rect x="146.564" y="293.359" style="fill:#FF6D3B;" width="214.558" height="22.62"/>
<rect x="146.564" y="304.69" style="fill:#F15424;" width="214.558" height="11.31"/>
<polygon style="fill:#242D3C;" points="132.763,300.263 123.911,304.683 132.776,309.129 "/>
<rect x="361.109" y="293.359" style="fill:#FFFFFF;" width="8" height="22.634"/>
<rect x="369.102" y="293.359" style="fill:#242D3C;" width="18.977" height="22.627"/>
<g>
	<polygon style="fill:#3E4959;" points="262.359,99.097 249.648,99.097 245.942,117.588 266.065,117.588 	"/>
	<polygon style="fill:#3E4959;" points="219.622,107.143 208.612,113.496 214.644,131.369 232.078,121.304 	"/>
	<polygon style="fill:#3E4959;" points="186.632,135.479 180.28,146.485 194.441,158.941 204.499,141.517 	"/>
	<polygon style="fill:#3E4959;" points="172.23,176.511 172.237,189.225 190.728,192.928 190.728,172.805 	"/>
	<polygon style="fill:#3E4959;" points="180.28,219.252 186.639,230.258 204.499,224.22 194.441,206.795 	"/>
	<polygon style="fill:#3E4959;" points="208.612,252.238 219.622,258.593 232.078,244.432 214.65,234.367 	"/>
	<polygon style="fill:#3E4959;" points="249.655,266.64 262.359,266.64 266.065,248.148 245.948,248.148 	"/>
	<polygon style="fill:#3E4959;" points="292.392,258.593 303.395,252.238 297.356,234.367 279.929,244.432 	"/>
	<polygon style="fill:#3E4959;" points="325.374,230.258 331.726,219.252 317.566,206.795 307.507,224.22 	"/>
	<polygon style="fill:#3E4959;" points="339.773,189.225 339.77,176.511 321.285,172.805 321.285,192.928 	"/>
	<polygon style="fill:#3E4959;" points="331.726,146.485 325.374,135.479 307.507,141.517 317.566,158.941 	"/>
	<polygon style="fill:#3E4959;" points="303.395,113.496 292.385,107.143 279.929,121.304 297.356,131.369 	"/>
</g>
<path style="fill:#242D3C;" d="M256,116.825c-36.478,0-66.045,29.561-66.045,66.045s29.567,66.045,66.045,66.045
	c36.484,0,66.045-29.561,66.045-66.045S292.484,116.825,256,116.825z M256,201.16c-10.085,0-18.287-8.199-18.287-18.29
	c0-10.091,8.202-18.29,18.287-18.29c10.088,0,18.293,8.199,18.293,18.29C274.293,192.961,266.088,201.16,256,201.16z"/>
<g>
	<path style="fill:#FFFFFF;" d="M256,151.169c-17.514,0-31.698,14.187-31.698,31.704s14.184,31.698,31.698,31.698
		s31.704-14.181,31.704-31.698S273.514,151.169,256,151.169z M256,198.722c-8.74,0-15.849-7.109-15.849-15.852
		c0-8.744,7.105-15.852,15.849-15.852s15.849,7.109,15.849,15.852C271.849,191.614,264.74,198.722,256,198.722z"/>
	<rect x="186.996" y="363.784" style="fill:#FFFFFF;" width="159.116" height="28.064"/>
</g>
<path style="fill:#D9D8D7;" d="M322.55,385.219c4.073,0,7.402-3.33,7.396-7.406l0,0c0-4.07-3.333-7.399-7.409-7.399l-115.253,0.007
	c-4.07,0-7.399,3.336-7.396,7.399c0,4.07,3.333,7.399,7.406,7.399H322.55z"/>
<g>
	<path style="fill:#FFFFFF;" d="M123.911,361.65l34.717-0.007l9.338,16.179l-9.332,16.173l-34.724,0.007
		c5.85,11.218,17.593,18.904,31.123,18.898c19.377,0,35.087-15.704,35.087-35.09c-0.007-19.36-15.717-35.064-35.074-35.077
		C141.497,342.749,129.764,350.406,123.911,361.65z"/>
	<path style="fill:#FFFFFF;" d="M339.75,377.826c-0.01,13.56,10.815,24.55,24.173,24.55c13.338,0.007,24.163-10.987,24.163-24.563
		c-0.01-13.56-10.828-24.543-24.18-24.536C350.571,353.27,339.757,364.257,339.75,377.826z M370.843,361.102l3.052,6.742
		l6.745,3.052l-2.603,6.917l2.596,6.937l-6.735,3.046l-3.056,6.729l-6.927-2.586l-6.92,2.6l-3.059-6.742l-6.739-3.052l2.606-6.917
		l-2.593-6.93l6.732-3.059l3.052-6.729l6.927,2.6L370.843,361.102z"/>
</g>
<g>
</g>
<g>
</g>
<g>
</g>
<g>
</g>
<g>
</g>
<g>
</g>
<g>
</g>
<g>
</g>
<g>
</g>
<g>
</g>
<g>
</g>
<g>
</g>
<g>
</g>
<g>
</g>
<g>
</g>
</svg>
